<svg xmlns="http://www.w3.org/2000/svg" version="1.1" xmlns:xlink="http://www.w3.org/1999/xlink" xmlns:svgjs="http://svgjs.dev/svgjs" width="1000" height="1125" viewBox="0 0 1000 1125"><g transform="matrix(1,0,0,1,0.0011008540699322111,0)"><svg viewBox="0 0 320 360" data-background-color="#050816" preserveAspectRatio="xMidYMid meet" height="1125" width="1000" xmlns="http://www.w3.org/2000/svg" xmlns:xlink="http://www.w3.org/1999/xlink"><g id="tight-bounds" transform="matrix(1,0,0,1,0.00010353528136874957,0)"><svg viewBox="0 0 320 360" height="360" width="320"><g><svg></svg></g><g><svg viewBox="0 0 320 360" height="360" width="320"><g><path d="M307.925 179.999l6.575-11.387c11.322-19.607 4.604-44.679-15.003-56.001l-11.387-6.575v-13.151c0-22.639-18.354-40.994-40.994-40.994h-13.151l-6.575-11.387c-11.322-19.607-36.393-26.325-56.001-15.003l-11.39 6.572-11.387-6.576c-19.607-11.318-44.679-4.6-56.001 15.007l-6.575 11.387h-13.151c-22.639 0-40.994 18.354-40.994 40.994v13.151l-11.387 6.575c-19.607 11.322-26.325 36.393-15.003 56.001l6.572 11.387-6.576 11.387c-11.318 19.607-4.6 44.679 15.007 56l11.387 6.576v13.15c0 22.639 18.354 40.994 40.994 40.994h13.151l6.575 11.387c11.322 19.607 36.393 26.325 56.001 15.003l11.387-6.571 11.387 6.575c19.607 11.322 44.679 4.604 56-15.003l6.576-11.387h13.15c22.639 0 40.994-18.354 40.994-40.994v-13.151l11.387-6.575c19.607-11.322 26.325-36.393 15.003-56.001zM297.702 115.716c8.655 4.996 14.842 13.062 17.428 22.713 2.586 9.65 1.261 19.734-3.735 28.384l-5.538 9.596-17.747-30.74v-35.494zM251.155 271.155l-57.791 33.365h-66.731l-57.791-33.365-33.365-57.791v-66.731l33.365-57.791 57.791-33.365h66.731l57.791 33.365 33.365 57.791v66.731zM284.517 220.539v31.351l-27.151 15.676zM247.566 277.366l-15.676 27.151h-31.351zM187.15 308.106l-27.151 15.676-27.151-15.676zM119.459 304.517h-31.352l-15.676-27.151zM62.632 267.566l-27.151-15.676v-31.351zM31.891 207.15l-15.675-27.151 15.675-27.151zM35.481 139.459v-31.352l27.151-15.676zM72.431 82.632l15.676-27.151h31.352zM132.848 51.891l27.151-15.675 27.151 15.675zM200.539 55.481h31.351l15.676 27.151zM257.366 92.431l27.151 15.676v31.352zM288.106 152.848l15.676 27.151-15.676 27.151zM247.112 55.481c9.992 0 19.384 3.889 26.452 10.956 7.063 7.063 10.956 16.46 10.957 26.452v11.079l-30.741-17.747-17.747-30.74zM173.18 28.606c8.655-4.996 18.735-6.322 28.385-3.735 9.65 2.586 17.716 8.777 22.712 17.428l5.538 9.596h-35.494l-30.741-17.747zM95.716 42.295c4.996-8.655 13.062-14.842 22.713-17.428 9.65-2.586 19.734-1.261 28.384 3.736l9.596 5.537-30.74 17.747h-35.494zM35.481 92.885c0-9.992 3.889-19.384 10.956-26.452 7.063-7.063 16.46-10.956 26.452-10.956h11.079l-17.747 30.74-30.74 17.747zM8.606 166.817c-4.996-8.655-6.322-18.735-3.735-28.385 2.586-9.65 8.777-17.716 17.428-22.712l9.596-5.538v35.495l-17.747 30.74zM22.295 244.281c-8.655-4.996-14.842-13.062-17.428-22.712-2.586-9.65-1.261-19.734 3.736-28.385l5.537-9.596 17.747 30.74v35.495zM72.885 304.517c-9.992 0-19.384-3.889-26.452-10.957-7.063-7.063-10.956-16.46-10.956-26.451v-11.08l30.74 17.747 17.747 30.741zM146.817 331.391c-8.655 4.996-18.735 6.322-28.385 3.735-9.65-2.586-17.716-8.777-22.712-17.428l-5.538-9.596h35.495l30.74 17.747zM224.281 317.702c-4.996 8.655-13.062 14.842-22.712 17.428-9.65 2.586-19.734 1.261-28.385-3.735l-9.596-5.538 30.74-17.747h35.495zM284.517 267.112c0 9.992-3.889 19.384-10.957 26.452-7.063 7.063-16.46 10.956-26.451 10.957h-11.08l17.747-30.741 30.741-17.747zM315.13 221.565c-2.586 9.65-8.777 17.716-17.428 22.712l-9.596 5.538v-35.494l17.747-30.741 5.538 9.596c4.996 8.658 6.326 18.739 3.739 28.389z" fill="#ffdc00" fill-rule="nonzero" stroke="none" stroke-width="1" stroke-linecap="butt" stroke-linejoin="miter" stroke-miterlimit="10" stroke-dasharray="" stroke-dashoffset="0" font-family="none" font-weight="none" font-size="none" text-anchor="none" style="mix-blend-mode: normal" data-fill-palette-color="tertiary"></path></g><g transform="matrix(1,0,0,1,64,126.65938566552902)"><svg viewBox="0 0 192 106.68122866894198" height="106.68122866894198" width="192"><g><svg viewBox="0 0 192 106.68122866894198" height="106.68122866894198" width="192"><g><svg viewBox="0 0 192 106.68122866894198" height="106.68122866894198" width="192"><g><svg viewBox="0 0 192 106.68122866894198" height="106.68122866894198" width="192"><g id="textblocktransform"><svg viewBox="0 0 192 106.68122866894198" height="106.68122866894198" width="192" id="textblock"><g><svg viewBox="0 0 192 106.68122866894198" height="106.68122866894198" width="192"><g transform="matrix(1,0,0,1,0,0)"><svg width="192" viewBox="0.5 -38 74.25 41.7" height="106.68122866894198" data-palette-color="#ffdc00"><path d="M19.65-20.05Q26.25-18.2 29.78-15.63 33.3-13.05 33.3-8.8L33.3-8.8Q33.3-5.9 31.8-3.78 30.3-1.65 27.63-0.5 24.95 0.65 21.6 0.65L21.6 0.65Q15.2 0.65 9.3-4.6L9.3-4.6 9.3-0.05 3.5-0.05 3.5-12.05 7.45-12.3Q10.1-8.8 13.93-6.7 17.75-4.6 21.2-4.6L21.2-4.6Q23.5-4.6 24.95-5.53 26.4-6.45 26.4-8.15L26.4-8.15Q26.4-10.05 23.9-11.5 21.4-12.95 15.4-14.55L15.4-14.55Q9.3-16.2 6.48-18.88 3.65-21.55 3.65-25.55L3.65-25.55Q3.65-28.35 5.23-30.5 6.8-32.65 9.38-33.83 11.95-35 14.95-35L14.95-35Q21.55-35 25.7-30.55L25.7-30.55 25.7-34.3 31.5-34.3 31.5-22.55 27.75-22.35Q25.9-25.95 22.9-27.85 19.9-29.75 16.55-29.75L16.55-29.75Q13.9-29.75 12.23-28.7 10.55-27.65 10.55-25.85L10.55-25.85Q10.55-24 12.63-22.7 14.7-21.4 19.65-20.05L19.65-20.05ZM56.1-29.75Q52.85-29.75 50.17-28.23 47.5-26.7 45.95-23.85 44.4-21 44.4-17.15L44.4-17.15Q44.4-13.5 45.92-10.68 47.45-7.85 50.15-6.28 52.85-4.7 56.25-4.7L56.25-4.7Q61.95-4.7 65.8-7.5L65.8-7.5 65.8-13.1 55.7-13.1 55.7-18.05 71.75-18.05 71.75-4.65Q69.1-2.3 65.02-0.8 60.95 0.7 56.25 0.7L56.25 0.7Q50.65 0.7 46.37-1.6 42.1-3.9 39.8-7.98 37.5-12.05 37.5-17.15L37.5-17.15Q37.5-22.15 39.77-26.23 42.05-30.3 45.95-32.65 49.85-35 54.5-35L54.5-35Q58-35 60.9-33.88 63.8-32.75 65.95-30.7L65.95-30.7 65.95-34.3 71.75-34.3 71.75-23.25 67.5-22.95Q65.8-25.9 62.92-27.83 60.05-29.75 56.1-29.75L56.1-29.75Z" opacity="1" transform="matrix(1,0,0,1,0,0)" fill="#ffdc00" class="wordmark-text-0" data-fill-palette-color="primary" id="text-0"></path></svg></g></svg></g></svg></g></svg></g></svg></g></svg></g></svg></g></svg></g><defs></defs></svg><rect width="320" height="360" fill="none" stroke="none" visibility="hidden"></rect></g></svg></g></svg>